<?xml version="1.0" encoding="UTF-8" standalone="no"?>
<!-- Created with Inkscape (http://www.inkscape.org/) -->

<svg
   xmlns:dc="http://purl.org/dc/elements/1.1/"
   xmlns:cc="http://creativecommons.org/ns#"
   xmlns:rdf="http://www.w3.org/1999/02/22-rdf-syntax-ns#"
   xmlns:svg="http://www.w3.org/2000/svg"
   xmlns="http://www.w3.org/2000/svg"
   xmlns:sodipodi="http://sodipodi.sourceforge.net/DTD/sodipodi-0.dtd"
   xmlns:inkscape="http://www.inkscape.org/namespaces/inkscape"
   width="744.09448819"
   height="1052.3622047"
   id="svg2"
   version="1.1"
   inkscape:version="0.48.2 r9819"
   sodipodi:docname="New document 1">
  <defs
     id="defs4" />
  <sodipodi:namedview
     id="base"
     pagecolor="#ffffff"
     bordercolor="#666666"
     borderopacity="1.0"
     inkscape:pageopacity="0.0"
     inkscape:pageshadow="2"
     inkscape:zoom="1.225"
     inkscape:cx="371.42857"
     inkscape:cy="580"
     inkscape:document-units="px"
     inkscape:current-layer="layer1"
     showgrid="false"
     inkscape:window-width="1095"
     inkscape:window-height="746"
     inkscape:window-x="39"
     inkscape:window-y="122"
     inkscape:window-maximized="0" />
  <metadata
     id="metadata7">
    <rdf:RDF>
      <cc:Work
         rdf:about="">
        <dc:format>image/svg+xml</dc:format>
        <dc:type
           rdf:resource="http://purl.org/dc/dcmitype/StillImage" />
        <dc:title></dc:title>
      </cc:Work>
    </rdf:RDF>
  </metadata>
  <g
     inkscape:label="Layer 1"
     inkscape:groupmode="layer"
     id="layer1">
    <path
       style="fill:none;stroke:#000000;stroke-width:1px;stroke-linecap:butt;stroke-linejoin:miter;stroke-opacity:1"
       d="m 520,189.50504 c -0.76494,-7.67556 -3.31191,-15.06695 -6.53061,-22.04082 -0.76493,-1.65735 -1.46899,-3.35797 -2.44898,-4.89796 -0.93543,-1.46995 -2.26614,-2.65424 -3.26531,-4.08163 -0.90988,-1.29984 -1.63265,-2.72109 -2.44898,-4.08163 -0.81632,-1.36055 -1.7394,-2.66249 -2.44898,-4.08163 -0.92677,-1.85354 -1.52221,-3.86075 -2.44898,-5.71429 -0.70957,-1.41915 -1.60805,-2.73615 -2.44898,-4.08163 -0.51998,-0.83198 -1.23419,-1.55244 -1.63265,-2.44898 -3.46509,-7.79645 0.47961,-2.13772 -4.08163,-8.97959 -1.04561,-1.56842 -3.85235,-4.9622 -4.89796,-6.53062 -0.88012,-1.32017 -1.53909,-2.78179 -2.44898,-4.08163 -0.18041,-0.25772 -5.29248,-6.50332 -5.71429,-7.34694 -0.24338,-0.48676 0.30188,-1.17983 0,-1.63265 -0.33751,-0.50626 -1.20241,-0.38608 -1.63265,-0.81633 -0.43024,-0.43024 -0.50328,-1.1109 -0.81633,-1.63265 -0.50477,-0.84129 -1.04399,-1.6641 -1.63265,-2.44898 0.0815,-1.61719 -1.20241,-0.38608 -1.63265,-0.81633 -0.19241,-0.19241 0.24338,-0.69463 0,-0.81632 -0.48677,-0.24338 -1.14589,0.24338 -1.63266,0 -0.24338,-0.12169 0.24339,-0.69464 0,-0.81633 -0.48676,-0.24338 -1.24783,0.38482 -1.63265,0 -0.60845,-0.60845 -0.33901,-1.73301 -0.81632,-2.448979 -0.11988,-0.179809 -1.94388,0.252552 -2.44898,0 -0.24339,-0.12169 0.24338,-0.694635 0,-0.816326 -0.97353,-0.486763 -2.29178,0.486763 -3.26531,0 -0.24338,-0.121691 0,-0.544218 0,-0.816327 -0.54422,-0.272109 -1.04237,-0.668754 -1.63265,-0.816326 -1.05594,-0.263985 -2.20937,0.263984 -3.26531,0 -1.2816,-0.320401 -1.9837,-1.312253 -3.26531,-1.632653 -0.7683,-0.192077 -1.68067,0.192077 -2.44898,0 -0.83479,-0.208698 -1.6052,-0.647572 -2.44898,-0.816327 -0.53364,-0.10673 -1.08843,0 -1.63265,0 -1.63265,0 -3.2653,0 -4.89796,0 -0.54422,0 -1.10468,0.131992 -1.63265,0 -0.59029,-0.147572 -1.05542,-0.623916 -1.63265,-0.816326 -0.53279,-0.177596 -3.92195,0 -4.89796,0 -3.80953,0 -7.61905,0 -11.42857,0 -0.29979,0 -3.23246,-0.03285 -3.26531,0 -0.19241,0.19241 0.24338,0.694635 0,0.816326 -0.48676,0.243382 -1.24783,-0.38482 -1.63265,0 -0.38482,0.38482 0.45281,1.330776 0,1.632653 -0.67923,0.452817 -1.76976,-0.452816 -2.44898,0 -0.24702,0.16468 0.25578,3.570065 0,4.081635 -0.1721,0.34419 -0.47214,0.64423 -0.81633,0.81632 -0.24338,0.1217 -0.69464,-0.24338 -0.81633,0 -0.27824,0.5565 0.29227,4.60569 0,4.89796 -0.60845,0.60846 -1.73301,0.33902 -2.44898,0.81633 -0.20368,0.13579 0.29595,2.00506 0,2.44898 -0.3375,0.50626 -1.29514,0.31006 -1.63265,0.81633 -0.57591,0.86386 0.7385,3.69247 0.81633,4.08163 0.10673,0.53365 0,1.08843 0,1.63265 0,1.90476 0,3.80953 0,5.71429 0,0.54422 -0.13199,1.10468 0,1.63265 0.14757,0.59029 0.62391,1.05542 0.81632,1.63265 0.0861,0.25815 -0.086,0.55819 0,0.81633 0.38482,1.15446 1.08844,2.17687 1.63266,3.26531 0.27211,0.54421 0.66875,1.04236 0.81632,1.63265 0.132,0.52797 -0.30187,1.17984 0,1.63265 0.33751,0.50627 1.29515,0.31006 1.63266,0.81633 0.30187,0.45282 -0.30188,1.17984 0,1.63265 0.33751,0.50627 1.20241,0.38609 1.63265,0.81633 0.43024,0.43024 0.62392,1.05542 0.81633,1.63265 0.0861,0.25815 -0.19241,0.62392 0,0.81633 0.43024,0.43024 1.26758,0.32956 1.63265,0.81632 0.51629,0.68839 0.37361,1.71113 0.81633,2.44898 0.9097,1.51618 2.7982,2.23857 4.08163,3.26531 0.60099,0.48079 1.08843,1.08844 1.63265,1.63265 0.27211,0.27211 0.48635,0.61834 0.81633,0.81633 1.04349,0.62609 2.40482,0.77217 3.2653,1.63265 0.86049,0.86049 0.87246,2.31506 1.63266,3.26531 1.15626,1.44533 1.88567,0.47142 3.2653,0.81633 0.59029,0.14757 1.12639,0.47881 1.63266,0.81632 2.53801,1.69201 -2.12461,0.13902 3.2653,2.44898 1.03122,0.44195 2.30326,0.2391 3.26531,0.81633 0.52174,0.31305 0.31006,1.29514 0.81633,1.63265 0.45281,0.30188 1.14589,-0.24338 1.63265,0 0.68839,0.3442 0.91806,1.34682 1.63265,1.63265 7.61905,0 0.81633,-0.81632 2.44898,0.81633 0.43024,0.43024 1.05542,0.62392 1.63265,0.81633 0.25815,0.0861 0.62392,-0.19241 0.81633,0 0.43024,0.43024 0.31006,1.29514 0.81633,1.63265 0.45281,0.30188 1.11636,-0.1721 1.63265,0 0.36507,0.12169 0.49614,0.60287 0.81633,0.81633 0.41109,1.7985 1.67934,0.4315 2.44898,0.81632 0.68838,0.3442 0.90251,1.38928 1.63265,1.63266 0.51629,0.17209 1.11636,-0.1721 1.63265,0 0.36508,0.12169 0.47214,0.64423 0.81633,0.81632 0.24338,0.12169 0.76296,-0.26682 0.81633,0 0.26682,1.33413 0,2.72109 0,4.08164 0,0.2721 0.12169,0.57294 0,0.81632 -0.1721,0.3442 -0.47214,0.64423 -0.81633,0.81633 -0.24284,0.12142 -4.55456,0 -4.89796,0 -2.17687,0 -4.35374,0 -6.53061,0 -0.81633,0 -1.63896,-0.10125 -2.44898,0 -1.37678,0.1721 -2.69984,0.69071 -4.08163,0.81633 -1.62595,0.14781 -3.26531,0 -4.89796,0 -2.17687,0 -4.35374,0 -6.53062,0 -7.61904,0 -15.23809,0 -22.85714,0 -17.34798,0 4.32012,-0.27001 -13.06122,0.81632 -2.17263,0.13579 -4.35374,0 -6.53062,0 -5.17006,0 -10.34013,0 -15.5102,0 -4.62585,0 -9.2517,0 -13.87755,0 -1.90476,0 -3.81436,0.13571 -5.71429,0 -1.91921,-0.13708 -3.7935,-0.70334 -5.71428,-0.81632 -2.71639,-0.15979 -5.45444,0.25798 -8.16327,0 -3.02856,-0.28844 -5.94876,-1.36911 -8.97959,-1.63266 -3.25303,-0.28287 -6.53061,0 -9.79592,0 -6.53061,0 -13.06122,0 -19.59183,0 -2.9932,0 -5.98949,0.13592 -8.9796,0 -3.00244,-0.13647 -5.97745,-0.67336 -8.97959,-0.81632 -2.71801,-0.12943 -5.44217,0 -8.16326,0 -2.72109,0 -5.44218,0 -8.16327,0 -8.16326,0 -16.32653,0 -24.48979,0 -2.72109,0 -5.44218,0 -8.16327,0 -0.27211,0 -0.54422,0 -0.81633,0 -0.2721,0 -0.62391,-0.19241 -0.81632,0 -1.68901,1.689 2.58103,-0.066 -0.81633,1.63265 -0.24338,0.12169 -0.69463,-0.24338 -0.81633,0 -0.34053,0.68106 0.3801,2.88521 0,3.26531 -0.60845,0.60845 -1.84052,0.20787 -2.44898,0.81632 -0.38482,0.38482 0.132,1.10469 0,1.63265 -0.14757,0.59029 -0.71629,1.03248 -0.81632,1.63266 -0.21222,1.27332 0,4.89868 0,6.53061 0,1.63265 0,3.26531 0,4.89796 0,1.08843 -0.15393,2.18781 0,3.26531 0.12169,0.85183 0.57993,1.6216 0.81632,2.44898 0.30822,1.07876 0.37438,2.23408 0.81633,3.2653 0.015,0.0349 3.21596,4.8116 3.26531,4.89796 0.60375,1.05657 1.15329,2.14679 1.63265,3.26531 0.45349,1.05814 0.82413,3.07097 1.63265,4.08163 0.72119,0.90148 1.75631,1.52541 2.44898,2.44898 0.11218,0.14956 4.82832,8.08491 4.89796,8.16326 2.31511,2.6045 5.69922,4.06657 8.16327,6.53062 1.23202,1.23202 2.16198,2.73313 3.2653,4.08163 1.34578,1.64484 2.64556,3.33133 4.08164,4.89796 1.56019,1.70203 3.2653,3.2653 4.89796,4.89796 1.63265,1.63265 3.14489,3.39533 4.89795,4.89796 2.06601,1.77086 4.38272,3.22737 6.53062,4.89796 2.75065,2.13939 5.21699,4.66981 8.16326,6.53061 11.8904,7.50972 2.83471,-0.42163 13.06123,5.71428 2.33331,1.39999 4.24606,3.41973 6.53061,4.89796 2.35208,1.52194 4.94464,2.64026 7.34694,4.08164 1.68257,1.00954 3.17029,2.33502 4.89796,3.2653 11.10299,5.97854 0.10222,-0.91829 12.24489,4.08163 2.59052,1.06669 4.84118,2.82875 7.34694,4.08164 2.67401,1.337 10.73449,4.81626 13.87755,5.71428 3.49071,0.99735 7.09026,1.56848 10.61225,2.44898 3.00988,0.75247 5.90826,2.01022 8.97959,2.44898 2.69374,0.38482 5.44218,0 8.16327,0 2.99319,0 5.98948,-0.13591 8.97959,0 21.55306,0.97969 -3.63779,0.39213 17.95918,2.44898 2.70883,0.25799 5.44218,0 8.16327,0 5.44217,0 10.88435,0 16.32653,0 3.2653,0 6.53344,-0.13594 9.79592,0 26.23827,1.09326 -5.87928,0.20764 18.77551,2.44898 2.9809,0.27099 5.98639,0 8.97959,0 8.16326,0 16.32653,0 24.48979,0 5.44218,0 10.88436,0 16.32654,0 1.08843,0 2.17687,0 3.2653,0 0.54422,0 1.11636,0.1721 1.63265,0 0.36508,-0.12169 0.49614,-0.60287 0.81633,-0.81633 0.50627,-0.33751 1.12639,-0.47881 1.63265,-0.81632 0.32019,-0.21346 0.47214,-0.64423 0.81633,-0.81633 0.24338,-0.12169 0.69464,0.24338 0.81633,0 0.24338,-0.48676 -0.30188,-1.17984 0,-1.63265 0.33751,-0.50627 1.14589,-0.45126 1.63265,-0.81633 0.61571,-0.46178 1.17087,-1.01694 1.63265,-1.63265 2.81612,-3.75483 -1.66,0.85735 1.63266,-4.08163 0.64038,-0.96057 1.8086,-1.48841 2.44898,-2.44898 0.47731,-0.71597 0.4315,-1.67934 0.81632,-2.44898 4.12729,-8.25458 -1.18829,5.98974 2.44898,-7.34694 0.77112,-2.82744 2.42318,-5.35616 3.26531,-8.16327 2.72763,-9.09209 -1.05593,1.31782 0.81632,-8.97959 0.26213,-1.44171 1.34528,-2.64474 1.63266,-4.08163 0.53365,-2.66825 -0.53365,-5.49502 0,-8.16327 0.28738,-1.43689 1.37052,-2.63991 1.63265,-4.08163 0.29206,-1.60632 0,-3.26531 0,-4.89796 0,-1.36054 0,-2.72109 0,-4.08163 0,-5.44218 0,-10.88436 0,-16.32653 0,-3.26531 0,-6.53061 0,-9.79592 0,-0.63048 0.16601,-4.39993 0,-4.89796 -1.971,-5.91299 0.23535,1.28703 -1.63265,-2.44898 -0.72254,-1.44508 1.21423,-0.27895 -0.81633,-1.63265 -0.50626,-0.33751 -1.20241,-0.38609 -1.63265,-0.81633 -0.19241,-0.19241 0.19241,-0.62392 0,-0.81633 -0.19241,-0.19241 -0.57295,0.1217 -0.81633,0 -0.34419,-0.17209 -0.54422,-0.54421 -0.81633,-0.81632 -0.2721,-0.27211 -0.64422,-0.47213 -0.81632,-0.81633 -0.12169,-0.24338 0.19241,-0.62391 0,-0.81632 -3.18591,-3.18591 -0.43841,0.18895 -2.44898,-0.81633 -0.34419,-0.1721 -0.47213,-0.64423 -0.81633,-0.81633 -0.24338,-0.12169 -0.62391,0.19241 -0.81632,0 -0.19241,-0.19241 0.24338,-0.69463 0,-0.81632 -0.48677,-0.24339 -1.14589,0.24338 -1.63266,0 -0.24338,-0.1217 0.19241,-0.62392 0,-0.81633 -0.43024,-0.43024 -1.08843,-0.54422 -1.63265,-0.81633 -0.81633,-1.36054 -1.63265,-2.72109 -2.44898,-4.08163 z"
       id="path2985"
       inkscape:connector-curvature="0" />
    <path
       style="fill:none;stroke:#000000;stroke-width:1px;stroke-linecap:butt;stroke-linejoin:miter;stroke-opacity:1"
       d="m 352.65306,432.77035 c 0.27211,-1.90476 0.64212,-3.79809 0.81632,-5.71429 0.0985,-1.08396 0,-2.17687 0,-3.2653 0,-3.26531 0,-6.53062 0,-9.79592 0,-1.63266 -0.16245,-3.27341 0,-4.89796 0.11164,-1.11637 0.67717,-2.15204 0.81633,-3.26531 0.38868,-3.1094 -0.53316,-5.86476 -0.81633,-8.97959 -0.0175,-0.19231 0.0178,-6.45934 0,-6.53061 -0.29514,-1.18058 -1.29834,-2.09522 -1.63265,-3.26531 -0.7993,-2.79755 1.10068,-2.21415 -0.81633,-4.89796 -0.89468,-1.25256 -2.25168,-2.10688 -3.2653,-3.2653 -0.89593,-1.02392 -1.57798,-2.22011 -2.44898,-3.26531 -0.49271,-0.59125 -1.23668,-0.97269 -1.63265,-1.63265 -0.44272,-0.73786 -0.37362,-1.71112 -0.81633,-2.44898 -0.39598,-0.65996 -1.08844,-1.08844 -1.63265,-1.63265 -0.54422,-0.54422 -1.08844,-1.08844 -1.63266,-1.63266 -0.54421,-0.54422 -0.99227,-1.20573 -1.63265,-1.63265 -0.22641,-0.15094 -0.66539,0.22641 -0.81633,0 -1.35208,-2.02813 -0.0227,-2.192 -1.63265,-3.26531 -4.12392,-2.74928 -0.0189,-0.006 -2.44898,-0.81632 -1.15446,-0.38482 -2.11085,-1.24784 -3.26531,-1.63266 -0.25814,-0.086 -0.57294,0.12169 -0.81632,0 -0.3442,-0.17209 -0.47213,-0.64423 -0.81633,-0.81632 -0.81632,-0.27211 -1.63265,-0.54422 -2.44898,-0.81633 -0.27211,0 -0.55818,0.0861 -0.81632,0 -0.57723,-0.19241 -1.04237,-0.66875 -1.63266,-0.81633 -0.52797,-0.13199 -1.08843,0 -1.63265,0 -0.54422,0 -1.08844,0 -1.63265,0 -1.63266,0 -3.26531,0 -4.89796,0 -0.54422,0 -1.08844,0 -1.63266,0 -0.2721,0 -0.55818,0.0861 -0.81632,0 -0.57723,-0.19241 -1.05543,-0.62391 -1.63266,-0.81632 -0.4418,-0.14727 -2.9872,0 -3.2653,0 -0.54422,0 -1.08844,0 -1.63265,0 -0.54422,0 -1.10469,-0.13199 -1.63266,0 -0.59028,0.14757 -1.05542,0.62391 -1.63265,0.81632 -0.73469,0.2449 -1.71429,-0.24489 -2.44898,0 -0.36507,0.12169 -0.43151,0.81633 -0.81633,0.81633 -0.60845,0 -1.05542,-0.62392 -1.63265,-0.81633 -0.25814,-0.086 -0.54422,0 -0.81633,0 -0.27211,0 -0.57294,-0.12169 -0.81632,0 -0.3442,0.1721 -0.43151,0.81633 -0.81633,0.81633 -0.86048,0 -1.5885,-0.81633 -2.44898,-0.81633 -2.38862,0 0.1594,1.14479 -0.81633,1.63266 -0.48676,0.24338 -1.11636,-0.1721 -1.63265,0 -0.36507,0.12169 -0.54422,0.54421 -0.81633,0.81632 -0.2721,0.27211 -0.69463,0.45126 -0.81632,0.81633 -0.1721,0.51629 0.1721,1.11636 0,1.63265 -0.12169,0.36508 -0.60287,0.49614 -0.81633,0.81633 -0.33751,0.50626 -0.38608,1.20241 -0.81632,1.63265 -0.43025,0.43024 -1.20242,0.38609 -1.63266,0.81633 -1.46862,1.46862 -0.40067,2.41902 -0.81632,4.08163 -0.14758,0.59029 -0.66876,1.04237 -0.81633,1.63265 -0.13199,0.52797 0,1.08844 0,1.63266 0,1.36054 0,2.72109 0,4.08163 0,1.36054 0,2.72109 0,4.08163 0,0.54422 -0.13199,1.10469 0,1.63266 0.14757,0.59028 0.66875,1.04236 0.81633,1.63265 0.13199,0.52797 -0.24339,1.14589 0,1.63265 0.34419,0.68839 1.20573,0.99228 1.63265,1.63266 0.15094,0.2264 -0.0861,0.55818 0,0.81632 0.19241,0.57723 0.54422,1.08844 0.81633,1.63266 0.54421,1.08843 1.1807,2.13543 1.63265,3.2653 0.31957,0.79894 0.37361,1.71112 0.81632,2.44898 0.39598,0.65996 1.23668,0.97269 1.63266,1.63265 0.44271,0.73786 0.37361,1.71112 0.81632,2.44898 0.39598,0.65996 1.17087,1.01694 1.63266,1.63266 0.36507,0.48676 0.45125,1.14589 0.81632,1.63265 0.46179,0.61571 1.20574,0.99227 1.63266,1.63265 0.15094,0.22641 -0.15094,0.58992 0,0.81633 2.93591,4.40386 0.25408,-0.56224 3.2653,2.44898 0.43025,0.43024 0.54422,1.08843 0.81633,1.63265 0.27211,0.54422 0.38608,1.20241 0.81633,1.63265 0.43024,0.43025 1.1109,0.50328 1.63265,0.81633 0.84129,0.50477 1.75523,0.93891 2.44898,1.63265 0.19241,0.19241 -0.19241,0.62392 0,0.81633 0.19241,0.19241 0.62392,-0.19241 0.81633,0 0.19241,0.19241 -0.19241,0.62392 0,0.81633 0.19241,0.19241 0.57294,-0.12169 0.81632,0 0.3442,0.17209 0.54422,0.54422 0.81633,0.81632 0.81633,0.54422 1.57145,1.19389 2.44898,1.63266 0.24338,0.12169 0.58992,-0.15094 0.81632,0 0.96057,0.64038 1.63266,1.63265 2.44898,2.44898 1.51857,1.51856 2.02206,2.23552 4.08164,3.2653 0.48676,0.24338 1.24783,-0.38482 1.63265,0 0.19241,0.19241 0.27211,0.81633 0,0.81633 -0.38482,0 -0.43151,-0.81633 -0.81633,-0.81633 -0.38482,0 -0.45125,0.69464 -0.81632,0.81633 -0.51629,0.1721 -1.08844,0 -1.63266,0 -0.54421,0 -1.14589,0.24338 -1.63265,0 -1.21691,-0.60845 -2.01477,-1.91304 -3.26531,-2.44898 -0.75032,-0.32157 -1.69103,0.30318 -2.44897,0 -0.5831,-0.23324 -1.74928,-1.9242 -2.44898,-2.44898 -8.2573,-6.19297 2.94806,2.25863 -4.89796,-2.44898 -0.65996,-0.39598 -0.9727,-1.23668 -1.63266,-1.63265 -0.73786,-0.44272 -1.67934,-0.43151 -2.44898,-0.81633 -4.77023,-2.38512 -0.11029,-1.08107 -4.89796,-2.44898 -7.17517,-2.05005 0.15753,0.32462 -5.71428,-1.63265 -0.81633,-0.27211 -1.71112,-0.37361 -2.44898,-0.81633 -0.65996,-0.39597 -0.91806,-1.34681 -1.63265,-1.63265 -0.75794,-0.30318 -1.65703,0.19799 -2.44898,0 -0.37333,-0.0933 -0.47214,-0.64423 -0.81633,-0.81633 -0.76964,-0.38482 -1.63265,-0.54422 -2.44898,-0.81632 -3.76097,-1.25366 -7.53188,-2.48597 -11.42857,-3.26531 -0.26683,-0.0534 -0.55234,0.066 -0.81633,0 -0.83479,-0.2087 -1.6052,-0.64757 -2.44898,-0.81633 -0.62347,-0.12469 -2.64413,0.20706 -3.2653,0 -0.57723,-0.19241 -1.05543,-0.62391 -1.63266,-0.81632 -0.25814,-0.0861 -0.57294,0.12169 -0.81632,0 -0.3442,-0.1721 -0.47214,-0.64423 -0.81633,-0.81633 -0.48676,-0.24338 -1.11636,0.1721 -1.63265,0 -0.57723,-0.19241 -1.04237,-0.66875 -1.63266,-0.81633 -0.52796,-0.13199 -1.14589,0.24338 -1.63265,0 -0.24338,-0.12169 0.24338,-0.69463 0,-0.81632 -0.97352,-0.48677 -2.23272,0.34419 -3.2653,0 -0.36508,-0.12169 -0.47214,-0.64423 -0.81633,-0.81633 -0.24338,-0.12169 -0.55818,0.0861 -0.81633,0 -0.57723,-0.19241 -1.05542,-0.62392 -1.63265,-0.81633 -0.25815,-0.086 -0.55234,0.066 -0.81633,0 -0.83479,-0.20869 -1.61419,-0.60762 -2.44898,-0.81632 -0.26398,-0.066 -0.55818,0.0861 -0.81632,0 -0.57723,-0.19241 -1.04237,-0.66876 -1.63266,-0.81633 -0.79195,-0.19799 -1.63265,0 -2.44898,0 -1.90476,0 -3.80952,0 -5.71428,0 -0.54422,0 -1.11636,0.1721 -1.63265,0 -0.36508,-0.12169 -0.47214,-0.64423 -0.81633,-0.81633 -0.29521,-0.1476 -3.51385,0 -4.08163,0 -0.97601,0 -4.36518,-0.17759 -4.89796,0 -3.41532,-1.47824 -0.94427,1.28846 -1.63266,1.63266 -0.97352,0.48676 -2.23272,-0.3442 -3.2653,0 -0.73015,0.24338 -0.886,1.44599 -1.63266,1.63265 -0.79195,0.19799 -1.71883,-0.36507 -2.44898,0 -0.54421,0.27211 -0.29458,1.31961 -0.81632,1.63265 -0.96205,0.57723 -2.20095,0.46154 -3.26531,0.81633 -6.29091,2.09697 -2.02806,1.01403 -8.16326,4.08163 -1.31065,0.65533 -2.72109,1.08844 -4.08164,1.63266 -1.36054,0.54421 -2.67808,1.21158 -4.08163,1.63265 -1.32897,0.39869 -2.84062,0.19582 -4.08163,0.81633 -0.54422,0.2721 -0.27211,1.36054 -0.81633,1.63265 -0.73014,0.36507 -1.71883,-0.36507 -2.44898,0 -2.65898,-0.44939 -0.0467,2.06416 -0.81632,2.44898 -0.48677,0.24338 -1.11637,-0.1721 -1.63266,0 -0.73014,0.24338 -0.94426,1.28846 -1.63265,1.63265 -0.48676,0.24338 -1.38927,-0.48676 -1.63265,0 -2.17687,4.35374 2.72109,-0.54422 -1.63266,1.63265 -0.48676,0.24339 0.48677,1.38928 0,1.63266 -0.48676,0.24338 -1.14589,-0.24338 -1.63265,0 -0.24338,0.12169 0.12169,0.57294 0,0.81632 -0.34419,0.68839 -1.38927,0.90251 -1.63265,1.63266 -0.19691,0.59073 0.26909,2.99621 0,3.2653 -0.19241,0.19241 -0.69464,-0.24338 -0.81633,0 -0.48676,0.97353 0.34419,2.23273 0,3.26531 -0.12169,0.36507 -0.69463,0.45125 -0.81633,0.81633 -0.25814,0.77443 0,1.63265 0,2.44898 0,1.63265 0,3.2653 0,4.89795 0,0.54422 0,1.08844 0,1.63266 0,0.54421 0.1721,1.11636 0,1.63265 -0.12169,0.36507 -0.69463,0.45125 -0.81632,0.81633 -0.1721,0.51629 -0.13199,1.10468 0,1.63265 0.14757,0.59029 0.62391,1.05542 0.81632,1.63265 0.12071,0.36211 0,6.28358 0,6.53062 0,0.54421 -0.17209,1.11636 0,1.63265 0.38482,1.15446 1.15329,2.14679 1.63266,3.2653 0.67792,1.58182 0.95473,3.31614 1.63265,4.89796 0.47936,1.11852 1.08844,2.17687 1.63265,3.26531 0.27211,0.54422 0.62392,1.05542 0.81633,1.63265 0.35479,1.06436 0.39965,2.22362 0.81633,3.26531 -0.30512,1.77838 1.36054,0.27211 1.63265,0.81633 0.24338,0.48676 -0.13199,1.10468 0,1.63265 0.14757,0.59029 0.54422,1.08843 0.81633,1.63265 0.27211,0.54422 0.47881,1.12639 0.81632,1.63265 0.64038,0.96057 1.75631,1.52542 2.44898,2.44898 0.36508,0.48677 0.38609,1.20242 0.81633,1.63266 0.43024,0.43024 1.25255,0.3412 1.63265,0.81632 0.7602,0.95025 0.90251,2.29178 1.63266,3.26531 0.16326,0.21769 0.58991,-0.15094 0.81632,0 0.64038,0.42692 0.99228,1.20573 1.63266,1.63265 5.09603,3.39736 1.36054,0.27211 5.71428,2.44898 1.41915,0.70958 2.59051,1.90675 4.08163,2.44898 1.55552,0.56565 3.33715,0.26545 4.89796,0.81633 3.10046,1.09428 5.82529,3.1539 8.97959,4.08163 1.56632,0.46068 3.2843,-0.24826 4.89796,0 9.26412,1.42525 2.21539,2.08537 12.2449,3.26531 2.43221,0.28614 4.89796,0 7.34694,0 2.9932,0 5.98639,0 8.97959,0 10.06803,0 20.13606,0 30.20408,0 4.35375,0 8.70749,0 13.06123,0 2.44898,0 4.91473,0.28614 7.34694,0 2.2285,-0.26218 4.32089,-1.2427 6.53061,-1.63266 2.42656,-0.42821 4.93074,-0.33308 7.34694,-0.81632 1.68755,-0.33751 3.20041,-1.34973 4.89796,-1.63266 6.60182,-1.1003 2.91416,1.15209 8.16326,-0.81632 1.13943,-0.42729 2.14679,-1.15329 3.26531,-1.63265 0.79091,-0.33897 1.65807,-0.47737 2.44898,-0.81633 1.11851,-0.47936 2.12588,-1.20537 3.2653,-1.63265 1.69219,-1.7408 3.86422,-0.28774 5.71429,-0.81633 1.42857,-0.40816 3.36735,-1.83674 4.89796,-2.44898 5.04368,-2.01747 0.25277,0.28178 4.08163,-1.63265 0.54422,-0.27211 1.08844,-0.54422 1.63266,-0.81633 0.54421,-0.27211 1.04236,-0.66875 1.63265,-0.81633 0.52797,-0.13199 1.14589,0.24338 1.63265,0 0.68839,-0.34419 0.99228,-1.20573 1.63265,-1.63265 0.22641,-0.15094 0.55235,0.066 0.81633,0 0.0504,-0.0126 3.78357,-1.13589 4.08163,-1.63265 0.57723,-0.96205 0.14317,-2.36776 0.81633,-3.26531 0.19185,-0.25579 2.44837,0.20424 3.26531,0 3.94199,-0.9855 -0.0405,-0.38793 2.44898,-1.63265 0.65306,-0.32653 1.79591,0.32653 2.44898,0 0.34419,-0.1721 0.54421,-0.54422 0.81632,-0.81633 0.54422,0 1.11636,0.1721 1.63265,0 0.36508,-0.12169 0.47214,-0.64423 0.81633,-0.81632 0.24338,-0.1217 0.55818,0.086 0.81633,0 0.57723,-0.19241 1.03601,-0.697 1.63265,-0.81633 0.80048,-0.1601 1.64086,0.11544 2.44898,0 1.11066,-0.15867 2.15204,-0.67717 3.26531,-0.81633 1.08003,-0.135 2.17687,0 3.2653,0 0.81633,0 1.65703,0.19799 2.44898,0 0.37333,-0.0933 0.49614,-0.60286 0.81633,-0.81632 0.50626,-0.33751 1.05542,-0.62392 1.63265,-0.81633 0.51629,-0.1721 1.24784,0.38482 1.63266,0 1.689,-1.68901 -2.58103,0.066 0.81632,-1.63265 0.24338,-0.12169 0.69464,0.24338 0.81633,0 0.24338,-0.48677 -0.24338,-1.14589 0,-1.63266 0.12169,-0.24338 0.62391,0.19241 0.81632,0 0.19241,-0.19241 0,-0.54421 0,-0.81632 0,-0.54422 -0.24338,-1.14589 0,-1.63266 0.1217,-0.24338 0.69464,0.24338 0.81633,0 0.24092,-0.48183 -0.26044,-4.37706 0,-4.89796 0.1721,-0.34419 0.69464,-0.45125 0.81633,-0.81632 0.0179,-0.0536 0.0179,-4.02803 0,-4.08164 -0.12169,-0.36507 -0.69464,-0.45125 -0.81633,-0.81632 -0.1721,-0.51629 0.1721,-1.11636 0,-1.63265 -0.12169,-0.36508 -0.64423,-0.47214 -0.81633,-0.81633 -1.18803,-2.37606 -0.28104,-2.87054 -1.63265,-4.89796 -0.21346,-0.32019 -0.54422,-0.54422 -0.81632,-0.81633 -0.54422,-0.27211 -1.29515,-0.31006 -1.63266,-0.81632 -0.30188,-0.45282 0.1721,-1.11637 0,-1.63266 -0.24338,-0.73014 -1.28846,-0.94426 -1.63265,-1.63265 -0.12169,-0.24338 0.19241,-0.62392 0,-0.81633 -0.86048,-0.86048 -2.29178,-0.9025 -3.26531,-1.63265 -5.04868,-3.78651 -0.49293,-0.16954 -1.63265,-2.44898 -0.76675,-1.5335 -2.99571,-1.36306 -4.08163,-2.44898 -0.19241,-0.19241 0.19241,-0.62391 0,-0.81632 -0.43024,-0.43025 -1.08844,-0.54422 -1.63266,-0.81633 -0.54421,-0.27211 -1.04236,-0.66876 -1.63265,-0.81633 -0.52797,-0.13199 -1.10468,0.13199 -1.63265,0 -2.36754,-0.59188 -0.95532,-0.63688 -2.44898,-1.63265 -0.88825,-0.59216 -3.19661,-1.48515 -4.08163,-1.63265 -7.81248,0 1.82536,0.36507 -4.08164,-0.81633 -0.80047,-0.1601 -1.6485,0.16009 -2.44898,0 -0.59663,-0.11933 -1.04236,-0.66876 -1.63265,-0.81633 -0.52797,-0.13199 -1.11636,0.1721 -1.63265,0 -0.36507,-0.12169 -0.54422,-0.54421 -0.81633,-0.81632 -0.81633,-0.27211 -1.60521,-0.64758 -2.44898,-0.81633 -0.92066,-0.18413 -3.01332,0 -4.08163,0 -2.44898,0 -4.89796,0 -7.34694,0"
       id="path2987"
       inkscape:connector-curvature="0" />
  </g>
</svg>
